<?xml version="1.0" encoding="iso-8859-1"?>
<!-- Generator: Adobe Illustrator 19.0.0, SVG Export Plug-In . SVG Version: 6.00 Build 0)  -->
<svg version="1.1" id="Capa_1" xmlns="http://www.w3.org/2000/svg" xmlns:xlink="http://www.w3.org/1999/xlink" x="0px" y="0px"
	 viewBox="0 0 512 512" style="enable-background:new 0 0 512 512;" xml:space="preserve">
<path style="fill:#17ACE8;" d="M492.8,158.5c-12.6-30.601-32.2-58.5-56.5-82.8C388.001,27.4,324.101,0,256,0S123.999,27.4,75.7,75.7
	S0,187.899,0,256c0,68.099,27.4,131.999,75.7,180.3C124,484.6,187.9,512,256,512s132.001-27.4,180.3-75.7
	C484.6,387.999,512,324.099,512,256C512,221.8,505.401,188.8,492.8,158.5z"/>
<path style="fill:#1689FC;" d="M436.3,436.3C388,484.6,324.1,512,256,512s-132.001-27.4-180.3-75.7C27.4,387.999,0,324.099,0,256
	c0-68.101,27.4-132.001,75.7-180.3L436.3,436.3z"/>
<path style="fill:#1DE8F1;" d="M415,97c-42.3-42.601-99-67-159-67S139.3,54.399,97,97c-42.599,42.3-66,99-66,159
	s23.401,116.7,66,159c42.299,42.599,99,67,159,67s116.7-24.401,159-67c42.599-42.299,67-99,67-159S457.599,139.3,415,97z"/>
<path style="fill:#1BD9DE;" d="M415,415c-42.299,42.599-99,67-159,67s-116.7-24.401-159-67c-42.599-42.3-66-99-66-159
	S54.401,139.3,97,97L415,415z"/>
<path style="fill:#CAE8F9;" d="M391,256c0,37.2-15,71.1-39.6,95.4C327.1,376,293.2,391,256,391c-74.7,0-135-60.3-135-135
	c0-37.2,15-71.1,39.6-95.4C184.9,136,218.8,121,256,121s71.1,15,95.4,39.6C376,184.9,391,218.8,391,256z"/>
<path style="fill:#B7E0F6;" d="M351.4,351.4C327.1,376,293.2,391,256,391c-74.7,0-135-60.3-135-135c0-37.2,15-71.1,39.6-95.4
	L351.4,351.4z"/>
<g>
	<path style="fill:#1689FC;" d="M43.861,271H15c-8.291,0-15-6.709-15-15s6.709-15,15-15h28.861c8.291,0,15,6.709,15,15
		C58.861,264.291,52.152,271,43.861,271z"/>
	<path style="fill:#1689FC;" d="M136.059,271H86.298c-8.291,0-15-6.709-15-15s6.709-15,15-15h49.761c8.291,0,15,6.709,15,15
		C151.059,264.291,144.35,271,136.059,271z"/>
</g>
<g>
	<path style="fill:#17ACE8;" d="M425.702,271h-49.761c-8.291,0-15-6.709-15-15s6.709-15,15-15h49.761c8.291,0,15,6.709,15,15
		C440.702,264.291,433.993,271,425.702,271z"/>
	<path style="fill:#17ACE8;" d="M497,271h-28.861c-8.291,0-15-6.709-15-15s6.709-15,15-15H497c8.291,0,15,6.709,15,15
		C512,264.291,505.291,271,497,271z"/>
</g>
<g>
	<path style="fill:#1689FC;" d="M256,512c-8.291,0-15-6.709-15-15v-28.861c0-8.291,6.709-15,15-15c8.291,0,15,6.709,15,15V497
		C271,505.291,264.291,512,256,512z"/>
	<path style="fill:#1689FC;" d="M256,440.702c-8.291,0-15-6.709-15-15v-49.761c0-8.291,6.709-15,15-15c8.291,0,15,6.709,15,15
		v49.761C271,433.993,264.291,440.702,256,440.702z"/>
</g>
<g>
	<path style="fill:#17ACE8;" d="M256,151.059c-8.291,0-15-6.709-15-15V86.298c0-8.291,6.709-15,15-15c8.291,0,15,6.709,15,15v49.761
		C271,144.35,264.291,151.059,256,151.059z"/>
	<path style="fill:#17ACE8;" d="M256,58.861c-8.291,0-15-7.709-15-16V15c0-8.291,6.709-15,15-15c8.291,0,15,6.709,15,15v27.861
		C271,51.152,264.291,58.861,256,58.861z"/>
</g>
<path style="fill:#FD4E26;" d="M242.5,195.7l-46.8,46.8l-31.2-15.601c-3.001-1.5-5.4-3.6-6.901-6.599L115.3,135.399
	c-2.999-5.7-1.8-12.599,2.701-17.401c4.799-4.499,11.699-5.7,17.399-2.699l84.901,42.299c2.999,1.5,5.099,3.9,6.601,6.901
	L242.5,195.7z"/>
<path style="fill:#FD3018;" d="M118.001,117.999l101.1,101.1L195.7,242.5l-31.2-15.601c-3.001-1.5-5.4-3.6-6.901-6.599
	L115.3,135.399C112.301,129.699,113.5,122.8,118.001,117.999z"/>
<path style="fill:#17ACE8;" d="M393.999,393.999c-4.799,4.501-11.699,5.7-17.399,2.701l-84.9-42.301
	c-2.999-1.5-5.099-3.9-6.601-6.899L269.5,316.3l23.399-23.401L316.3,269.5l31.199,15.599c3.001,1.5,5.4,3.6,6.901,6.601
	l42.299,84.899C399.699,382.299,398.5,389.2,393.999,393.999z"/>
<path style="fill:#1689FC;" d="M393.999,393.999c-4.799,4.501-11.699,5.7-17.399,2.701l-84.9-42.301
	c-2.999-1.5-5.099-3.9-6.601-6.899L269.5,316.3l23.399-23.401L393.999,393.999z"/>
<path style="fill:#57555C;" d="M309.101,202.899c-28.5-28.2-77.701-28.2-106.201,0C188.8,217,181,235.899,181,256
	c0,20.099,7.8,39,21.899,53.099C217,323.2,235.901,331,256,331s39-7.8,53.101-21.901C323.2,295,331,276.099,331,256
	C331,235.899,323.2,217,309.101,202.899z"/>
<path style="fill:#3C3A41;" d="M309.101,309.099C295,323.2,276.099,331,256,331s-39-7.8-53.101-21.901
	C188.8,295,181,276.099,181,256c0-20.101,7.8-39,21.899-53.101L309.101,309.099z"/>
<path style="fill:#CAE8F9;" d="M287.8,224.2c-8.399-8.401-19.799-13.2-31.8-13.2s-23.401,4.799-31.8,13.2
	c-8.401,8.399-13.2,19.799-13.2,31.8c0,11.999,4.799,23.399,13.2,31.8c16.8,17.1,46.8,17.1,63.6,0
	c8.401-8.401,13.2-19.801,13.2-31.8C301,243.999,296.201,232.599,287.8,224.2z"/>
<path style="fill:#17ACE8;" d="M266.499,266.499c-5.999,5.7-15.298,5.7-21.299,0c-5.7-6-5.7-15.3,0-21.299c6-5.7,15.3-5.7,21.299,0
	C272.199,251.199,272.199,260.499,266.499,266.499z"/>
<path style="fill:#B7E0F6;" d="M287.8,287.8c-16.8,17.1-46.8,17.1-63.6,0c-8.401-8.401-13.2-19.801-13.2-31.8
	c0-12.001,4.799-23.401,13.2-31.8L287.8,287.8z"/>
<path style="fill:#1689FC;" d="M266.499,266.499c-5.999,5.7-15.298,5.7-21.299,0c-5.7-6-5.7-15.3,0-21.299L266.499,266.499z"/>
<g>
</g>
<g>
</g>
<g>
</g>
<g>
</g>
<g>
</g>
<g>
</g>
<g>
</g>
<g>
</g>
<g>
</g>
<g>
</g>
<g>
</g>
<g>
</g>
<g>
</g>
<g>
</g>
<g>
</g>
</svg>
