<svg id="Capa_1" data-name="Capa 1" xmlns="http://www.w3.org/2000/svg" xmlns:xlink="http://www.w3.org/1999/xlink" viewBox="0 0 232.11 49.34"><defs><style>.cls-1{fill:url(#Dégradé_sans_nom);}.cls-2{isolation:isolate;font-size:26.42px;fill:#36d1dc;font-family:Arial-BoldMT, Arial;font-weight:700;}</style><linearGradient id="Dégradé_sans_nom" x1="42.48" y1="14.99" x2="10.74" y2="46.73" gradientTransform="matrix(1, 0, 0, -1, -0.46, 51.62)" gradientUnits="userSpaceOnUse"><stop offset="0" stop-color="#5b86e5"/><stop offset="1" stop-color="#36d1dc"/></linearGradient></defs><title>logo 1 new version</title><path class="cls-1" d="M48.68,21.29a4.46,4.46,0,0,0-4.14-2.56H41.1L48.77,5.94a1.8,1.8,0,0,0,0-1.92,1.9,1.9,0,0,0-1.64-1H35.71a2,2,0,0,0-1.64.91L22.92,23.2v.09A5.91,5.91,0,0,0,23,29.05a5.78,5.78,0,0,0,4.94,2.83h1.82L24.93,45.4A2.83,2.83,0,0,0,25.11,48a3.22,3.22,0,0,0,2.65,1.37h0a3.75,3.75,0,0,0,2.56-1l.18-.18L41,34.45a2,2,0,0,0-.37-2.74,1.9,1.9,0,0,0-2.65.36L30.23,42.29l4.2-11.67a2,2,0,0,0-.27-1.73,1.81,1.81,0,0,0-1.56-.83H28a1.9,1.9,0,0,1-1.65-.91,2,2,0,0,1,0-1.92L37,6.94h6.94L36.26,19.73a1.8,1.8,0,0,0,0,1.92,1.92,1.92,0,0,0,1.64,1h6.85c.37,0,.55.18.55.36a.58.58,0,0,1-.09.64h0l-.82.91a2,2,0,0,0,.27,2.74,1.92,1.92,0,0,0,2.71-.23l0,0,.82-.91A5.08,5.08,0,0,0,48.68,21.29ZM22.74,35.72a.73.73,0,0,1-.37-.09,11.17,11.17,0,0,1,.55-22,.57.57,0,0,0,.37-.09A1.94,1.94,0,0,0,25,11.44a1.88,1.88,0,0,0-2-1.75h-.1a1.1,1.1,0,0,0-.55.1,14.82,14.82,0,0,0-9.13,4.93,15,15,0,0,0,8.4,24.66c.19,0,.28.09.46.09h.27a1.94,1.94,0,0,0,1.92-1.64,1.79,1.79,0,0,0-1.42-2.1ZM13,8.31a2,2,0,0,0,1.64.92,1.81,1.81,0,0,0,1-.28,1.92,1.92,0,0,0,.64-2.64h0L14.79,3.93a1.93,1.93,0,0,0-3.29,2ZM6.39,33,3.92,34.35A2,2,0,0,0,4.84,38a1.77,1.77,0,0,0,.91-.27l2.47-1.37A1.94,1.94,0,0,0,9,33.72h0a1.82,1.82,0,0,0-2.45-.79ZM24.48,6.76a1.87,1.87,0,0,0,1.91-1.83s0-.06,0-.09V1.92a1.93,1.93,0,1,0-3.85,0V4.84a1.93,1.93,0,0,0,1.94,1.92ZM6.66,24.62a1.87,1.87,0,0,0-1.83-1.91H1.91a1.92,1.92,0,0,0,0,3.83H4.75A1.92,1.92,0,0,0,6.66,24.62Zm1.88-12.2L6.12,11.05a2,2,0,0,0-2.65.74,1.93,1.93,0,0,0,.72,2.63h0L6.54,15.8a1.73,1.73,0,0,0,.92.28,2,2,0,0,0,1.08-3.66ZM15,39.92a2,2,0,0,0-2.65.73L11,43a1.94,1.94,0,0,0,.72,2.65h0a1.77,1.77,0,0,0,1,.28A2.06,2.06,0,0,0,14.34,45l1.37-2.41a2,2,0,0,0-.73-2.7Z" transform="translate(-0.13 0.01)"/><text class="cls-2" transform="translate(61.45 32.8)">Solar Planner</text></svg>