<?xml version="1.0" encoding="utf-8"?>
<!-- Generator: Adobe Illustrator 21.0.0, SVG Export Plug-In . SVG Version: 6.00 Build 0)  -->
<svg version="1.1" id="Capa_1" xmlns="http://www.w3.org/2000/svg" xmlns:xlink="http://www.w3.org/1999/xlink" x="0px" y="0px"
	 viewBox="0 0 261.5 67" style="enable-background:new 0 0 261.5 67;" xml:space="preserve">
<style type="text/css">
	.st0{fill:#FFFFFF;}
	.st1{font-family:'Arial-BoldMT';}
	.st2{font-size:26.42px;}
</style>
<title>white_logo new version</title>
<path class="st0" d="M67.1,28.3c-0.8-1.6-2.4-2.6-4.1-2.6h-3.4l7.7-12.8c0.4-0.6,0.4-1.3,0-1.9c-0.3-0.6-1-1-1.6-1H54.1
	c-0.7,0-1.3,0.4-1.6,0.9L41.3,30.2v0.1c-1,1.8-1,4,0.1,5.8c1,1.7,2.9,2.8,4.9,2.8h1.8l-4.8,13.5c-0.4,0.8-0.3,1.8,0.2,2.6
	c0.6,0.9,1.6,1.4,2.7,1.4l0,0c0.9,0,1.9-0.4,2.6-1l0.2-0.2l10.5-13.7c0.6-0.9,0.5-2.1-0.4-2.7c-0.8-0.6-2-0.5-2.7,0.4l-7.8,10.2
	l4.2-11.7c0.2-0.6,0.1-1.2-0.3-1.7c-0.3-0.5-0.9-0.8-1.6-0.8h-4.6c-0.7,0-1.3-0.3-1.6-0.9c-0.3-0.6-0.3-1.3,0-1.9l10.6-18.3h6.9
	l-7.7,12.8c-0.4,0.6-0.4,1.3,0,1.9c0.3,0.6,1,1,1.6,1h6.8c0.4,0,0.5,0.2,0.5,0.4c0.1,0.2,0.1,0.5-0.1,0.6l0,0l-0.8,0.9
	c-0.7,0.8-0.5,2,0.3,2.7c0.8,0.7,2,0.6,2.7-0.2c0,0,0,0,0,0l0,0l0.8-0.9C67.5,31.7,67.7,29.9,67.1,28.3z M41.1,42.7
	c-0.1,0-0.3,0-0.4-0.1c-6-1.2-10-7.1-8.8-13.1c0.9-4.6,4.6-8.2,9.3-8.9c0.1,0,0.3,0,0.4-0.1c1-0.1,1.8-1.1,1.7-2.1
	c-0.1-1-1-1.8-2-1.8h-0.1c-0.2,0-0.4,0-0.5,0.1c-3.5,0.5-6.8,2.2-9.1,4.9c-5.5,6.2-4.9,15.7,1.3,21.2c2,1.8,4.5,3,7.1,3.5
	c0.2,0,0.3,0.1,0.5,0.1h0.3c1,0,1.8-0.7,1.9-1.6c0.2-1-0.4-1.9-1.4-2.1c0,0,0,0,0,0L41.1,42.7z M31.4,15.3c0.4,0.6,1,0.9,1.6,0.9
	c0.4,0,0.7-0.1,1-0.3c0.9-0.6,1.2-1.7,0.6-2.6c0,0,0,0,0,0l0,0l-1.5-2.4c-0.6-0.9-1.8-1.1-2.7-0.5c-0.8,0.6-1,1.6-0.6,2.5L31.4,15.3
	z M24.8,40l-2.5,1.4c-0.9,0.6-1.2,1.9-0.5,2.8c0.3,0.5,0.9,0.8,1.5,0.9c0.3,0,0.6-0.1,0.9-0.3l2.5-1.4c0.9-0.5,1.3-1.7,0.8-2.6
	c0,0,0,0,0,0l0,0c-0.5-0.9-1.6-1.2-2.4-0.8c0,0,0,0,0,0L24.8,40z M42.8,13.8c1,0,1.9-0.8,1.9-1.8c0,0,0,0,0,0c0,0,0-0.1,0-0.1V8.9
	c0.1-1.1-0.7-2-1.8-2.1c-1.1-0.1-2,0.7-2.1,1.8c0,0.1,0,0.2,0,0.3v2.9C40.9,12.9,41.8,13.8,42.8,13.8C42.8,13.8,42.8,13.8,42.8,13.8
	z M25,31.6c0-1-0.8-1.9-1.8-1.9c0,0,0,0,0,0h-2.9c-1.1,0.1-1.9,1-1.8,2.1c0.1,1,0.8,1.7,1.8,1.8h2.8C24.2,33.5,25,32.7,25,31.6z
	 M26.9,19.4l-2.4-1.4c-0.9-0.5-2.1-0.2-2.6,0.7c-0.5,0.9-0.2,2.1,0.7,2.6l0,0l2.3,1.4c0.3,0.2,0.6,0.3,0.9,0.3c1.1,0,2-0.9,2-2
	C27.8,20.4,27.4,19.8,26.9,19.4L26.9,19.4z M33.4,46.9c-0.9-0.5-2.1-0.2-2.6,0.7L29.4,50c-0.5,0.9-0.2,2.1,0.7,2.6c0,0,0,0,0,0l0,0
	c0.3,0.2,0.6,0.3,1,0.3c0.7,0,1.3-0.4,1.7-0.9l1.4-2.4C34.6,48.7,34.3,47.5,33.4,46.9L33.4,46.9z"/>
<text transform="matrix(1 0 0 1 79.95 39.8)" class="st0 st1 st2">Solar Planner</text>
</svg>
